<?xml version="1.0" encoding="UTF-8"?><!DOCTYPE svg PUBLIC "-//W3C//DTD SVG 1.1//EN" "http://www.w3.org/Graphics/SVG/1.1/DTD/svg11.dtd"><svg xmlns="http://www.w3.org/2000/svg" xmlns:xlink="http://www.w3.org/1999/xlink"><defs>
        <clipPath id="clip0_8_640">
            <path d="M0 0h14v14H0z"/>
        </clipPath>
    
        <clipPath id="clip0_8_661">
            <path d="M0 0h22v22H0z"/>
        </clipPath>
    
        <clipPath id="clip0_8_663">
            <path d="M0 0h22v22H0z"/>
        </clipPath>
    </defs><symbol id="ico-mono-arrow-down" viewBox="0 0 22 13">
    <path fill-rule="evenodd" clip-rule="evenodd" d="M11 9.586L20.293.293l1.414 1.414L11 12.414.293 1.707 1.707.293 11 9.586z"/>
</symbol><symbol id="ico-mono-arrow-next" viewBox="0 0 9 14">
    <path d="M8.148 6.454L2.438.224A.669.669 0 001.94 0a.669.669 0 00-.497.224l-.42.458a.817.817 0 000 1.083l4.795 5.232-4.8 5.238a.797.797 0 00-.206.541c0 .205.073.397.206.542l.42.458a.669.669 0 00.496.224c.189 0 .365-.08.497-.224l5.716-6.235a.798.798 0 00.205-.544c0-.206-.072-.399-.205-.543z"/>
</symbol><symbol id="ico-mono-arrow-prev" viewBox="0 0 9 14">
    <path d="M.852 6.454l5.71-6.23A.669.669 0 017.06 0c.188 0 .365.08.497.224l.42.458a.817.817 0 010 1.083L3.181 6.997l4.8 5.238a.797.797 0 01.206.541.798.798 0 01-.205.542l-.421.458a.669.669 0 01-.497.224.668.668 0 01-.496-.224L.852 7.541a.798.798 0 01-.205-.544c0-.206.072-.399.205-.543z"/>
</symbol><symbol id="ico-mono-arrow-right" viewBox="0 0 21 10">
    <path d="M20.166 4.377v-.001L16.002.232a.797.797 0 00-1.125 1.13l2.796 2.782H.797a.797.797 0 100 1.593h16.876L14.878 8.52a.797.797 0 101.124 1.13l4.164-4.145a.798.798 0 000-1.128z"/>
</symbol><symbol id="ico-mono-cancel" viewBox="0 0 10 10">
    <path d="M6.101 5l3.74-3.739a.544.544 0 000-.773L9.512.16A.542.542 0 009.126 0a.542.542 0 00-.387.16L5 3.9 1.261.16A.542.542 0 00.874 0a.542.542 0 00-.386.16L.16.488a.547.547 0 000 .773l3.739 3.74L.16 8.738a.544.544 0 00-.16.387c0 .146.057.284.16.387l.328.327c.103.103.24.16.386.16a.542.542 0 00.387-.16l3.74-3.739 3.738 3.74c.103.102.24.159.387.159a.543.543 0 00.387-.16l.327-.327a.543.543 0 00.16-.387.544.544 0 00-.16-.387L6.101 5z"/>
</symbol><symbol id="ico-mono-cart" viewBox="0 0 28 36">
    <path d="M27.162 31.093l-1.915-21.07A1.127 1.127 0 0024.124 9H20.75V6.75c0-1.809-.7-3.508-1.97-4.779A6.713 6.713 0 0013.998 0a6.758 6.758 0 00-6.75 6.75V9H3.874c-.583 0-1.069.443-1.12 1.024L.839 31.093a4.51 4.51 0 001.159 3.442A4.508 4.508 0 005.32 36H22.68a4.508 4.508 0 003.323-1.465 4.52 4.52 0 001.159-3.442zM9.499 6.75c0-2.482 2.018-4.5 4.5-4.5a4.482 4.482 0 014.5 4.5V9h-9V6.75zM24.34 33.019a2.233 2.233 0 01-1.663.731H5.321c-.64 0-1.23-.261-1.66-.733a2.219 2.219 0 01-.579-1.722l1.82-20.045H7.25v3.375a1.125 1.125 0 002.25 0V11.25h9v3.375a1.125 1.125 0 002.25 0V11.25h2.347l1.822 20.047a2.222 2.222 0 01-.578 1.722z"/>
</symbol><symbol id="ico-mono-close" viewBox="0 0 10 10">
    <path d="M6.101 5l3.74-3.739a.544.544 0 000-.773L9.512.16A.542.542 0 009.126 0a.542.542 0 00-.387.16L5 3.9 1.261.16A.542.542 0 00.874 0a.542.542 0 00-.386.16L.16.488a.547.547 0 000 .773l3.739 3.74L.16 8.738a.544.544 0 00-.16.387c0 .146.057.284.16.387l.328.327c.103.103.24.16.386.16a.542.542 0 00.387-.16l3.74-3.739 3.738 3.74c.103.102.24.159.387.159a.543.543 0 00.387-.16l.327-.327a.543.543 0 00.16-.387.544.544 0 00-.16-.387L6.101 5z"/>
</symbol><symbol id="ico-mono-favorite-active" viewBox="0 0 25 22">
    <path fill-rule="evenodd" clip-rule="evenodd" d="M12.011 1.546c2.914-2.238 7.135-2.043 9.823.581a7.175 7.175 0 010 10.317l-9.104 8.891c-.4.39-1.038.39-1.438 0l-9.055-8.844-.05-.048a7.177 7.177 0 010-10.317c2.688-2.626 6.91-2.82 9.824-.58z"/>
</symbol><symbol id="ico-mono-favorite" viewBox="0 0 25 22">
    <path fill-rule="evenodd" clip-rule="evenodd" d="M12.642 1.548c2.914-2.238 7.134-2.043 9.823.581a7.175 7.175 0 010 10.316l-9.104 8.892c-.4.39-1.039.39-1.438 0l-9.056-8.844-.05-.049a7.177 7.177 0 010-10.316c2.688-2.626 6.91-2.82 9.825-.58zm-.77 2.052c-2.103-2.054-5.515-2.054-7.617 0a5.119 5.119 0 000 7.372l.05.049 8.337 8.142 8.385-8.19a5.118 5.118 0 000-7.371c-2.103-2.054-5.516-2.055-7.617 0l-.05.047c-.4.39-1.037.39-1.437 0l-.05-.049z"/>
</symbol><symbol id="ico-mono-footer-location" viewBox="0 0 12 14">
    <path d="M6 0A5.16 5.16 0 00.846 5.154c0 .742.151 1.45.45 2.104 1.29 2.82 3.76 5.797 4.486 6.642a.287.287 0 00.435 0c.727-.845 3.197-3.822 4.486-6.642.3-.655.451-1.362.451-2.104A5.16 5.16 0 006 0zm0 7.831a2.68 2.68 0 01-2.678-2.677A2.68 2.68 0 016 2.477a2.68 2.68 0 012.677 2.677A2.68 2.68 0 016 7.831z"/>
</symbol><symbol id="ico-mono-footer-mail" viewBox="0 0 14 14">
    <g clip-path="url(#clip0_8_640)">
        <path d="M9.281 7.072l4.72 2.984V3.962l-4.72 3.11z"/>
        <path d="M0 3.962v6.094l4.72-2.984L0 3.962z"/>
        <path d="M13.126 2.188H.876a.864.864 0 00-.849.744l6.974 4.595 6.974-4.595a.864.864 0 00-.849-.744z"/>
        <path d="M8.478 7.6l-1.238.816a.437.437 0 01-.481 0L5.52 7.599.027 11.074a.863.863 0 00.847.739h12.25c.435 0 .78-.323.847-.739L8.478 7.6z"/>
    </g>
    
</symbol><symbol id="ico-mono-footer-phone" viewBox="0 0 14 14">
    <path d="M12.877 9.19a7.948 7.948 0 01-2.497-.398c-.39-.134-.87-.011-1.11.234l-1.573 1.188c-1.826-.974-2.95-2.099-3.912-3.91L4.94 4.77c.3-.299.407-.736.278-1.146a7.96 7.96 0 01-.4-2.5C4.818.503 4.315 0 3.695 0h-2.57C.503 0 0 .504 0 1.123 0 8.223 5.776 14 12.877 14c.62 0 1.123-.504 1.123-1.123v-2.564c0-.62-.504-1.124-1.123-1.124z"/>
</symbol><symbol id="ico-mono-heart" viewBox="0 0 36 32">
    <path fill-rule="evenodd" clip-rule="evenodd" d="M18 2.482c4.282-3.477 10.719-3.297 14.78.535 4.293 4.05 4.293 10.634 0 14.686L18.687 31.005a1 1 0 01-1.373 0L3.22 17.701c-4.293-4.05-4.29-10.634 0-14.685C7.279-.82 13.718-.997 18 2.482zm-.763 1.988c-3.49-3.293-9.158-3.293-12.645 0-3.455 3.263-3.456 8.516 0 11.776l.077.074 13.332 12.583 13.406-12.655c3.457-3.262 3.457-8.515 0-11.776-3.49-3.292-9.157-3.293-12.644 0l-.076.071a1 1 0 01-1.373 0l-.077-.073z"/>
</symbol><symbol id="ico-mono-location" viewBox="0 0 10 12">
    <path d="M5 .167A4.667 4.667 0 00.333 4.833c0 3.15 4.113 6.709 4.288 6.86a.584.584 0 00.758 0c.205-.151 4.288-3.71 4.288-6.86A4.667 4.667 0 005 .167zm0 10.296c-1.242-1.167-3.5-3.681-3.5-5.63a3.5 3.5 0 017 0c0 1.949-2.257 4.469-3.5 5.63zM5 2.5a2.333 2.333 0 100 4.667A2.333 2.333 0 005 2.5zM5 6a1.167 1.167 0 110-2.333A1.167 1.167 0 015 6z"/>
</symbol><symbol id="ico-mono-mail" viewBox="0 0 12 10">
    <path d="M10.666.333H1.333C.692.333.173.858.173 1.5l-.006 7a1.17 1.17 0 001.166 1.167h9.334A1.17 1.17 0 0011.832 8.5v-7A1.17 1.17 0 0010.666.333zM10.083 8.5H1.917a.585.585 0 01-.584-.583v-5.25l4.048 2.531c.38.24.858.24 1.237 0l4.048-2.531v5.25c0 .32-.262.583-.583.583zM6 4.417L1.333 1.5h9.334L6 4.417z"/>
</symbol><symbol id="ico-mono-phone" viewBox="0 0 14 14">
    <path d="M9.976 13.045c-.496 0-.985-.13-1.416-.377l-.06-.034a18.893 18.893 0 01-6.815-6.67l-.317-.528a2.824 2.824 0 01.425-3.453l.632-.632a1.362 1.362 0 011.925 0l1.393 1.392a1.366 1.366 0 01.224 1.63l-.524.93a.103.103 0 00.017.123l3.1 3.1a.104.104 0 00.124.016l.928-.522a1.367 1.367 0 011.631.223l1.393 1.393a1.363 1.363 0 010 1.926l-.66.659a2.823 2.823 0 01-2 .824zM3.388 1.918a.395.395 0 00-.28.116l-.632.631a1.859 1.859 0 00-.28 2.273l.317.529a17.924 17.924 0 006.464 6.327l.06.034a1.875 1.875 0 002.256-.29l.66-.66a.397.397 0 000-.56L10.56 8.925a.397.397 0 00-.474-.064l-.928.522a1.073 1.073 0 01-1.28-.175l-3.1-3.1a1.07 1.07 0 01-.176-1.28l.524-.928a.398.398 0 00-.065-.474L3.668 2.034a.395.395 0 00-.28-.116z"/>
</symbol><symbol id="ico-mono-search" viewBox="0 0 487.95 487.95">
    <path d="M481.8 453l-140-140.1c27.6-33.1 44.2-75.4 44.2-121.6C386 85.9 299.5.2 193.1.2S0 86 0 191.4s86.5 191.1 192.9 191.1c45.2 0 86.8-15.5 119.8-41.4l140.5 140.5c8.2 8.2 20.4 8.2 28.6 0 8.2-8.2 8.2-20.4 0-28.6zM41 191.4c0-82.8 68.2-150.1 151.9-150.1s151.9 67.3 151.9 150.1-68.2 150.1-151.9 150.1S41 274.1 41 191.4z"/>
</symbol><symbol id="ico-mono-settings" viewBox="0 0 447.479 447.479">
    <path d="M411.426 75.746H36.053C16.173 75.746 0 91.92 0 111.799V335.68c0 19.879 16.173 36.052 36.053 36.052h375.374c19.879 0 36.053-16.173 36.053-36.052V111.799c-.001-19.879-16.174-36.053-36.054-36.053zm16.053 259.934c0 8.851-7.201 16.052-16.053 16.052H36.053c-8.852 0-16.053-7.201-16.053-16.052V111.799c0-8.852 7.201-16.053 16.053-16.053h375.374c8.852 0 16.053 7.201 16.053 16.053V335.68z"/>
    <path d="M82.747 127.494c-17.506 0-31.749 14.243-31.749 31.749 0 14.011 9.127 25.923 21.745 30.125v120.615c0 5.523 4.477 10 10 10s10-4.477 10-10V189.37c12.622-4.199 21.753-16.113 21.753-30.127 0-17.506-14.243-31.749-31.749-31.749zm0 43.498c-6.479 0-11.749-5.271-11.749-11.749s5.271-11.749 11.749-11.749 11.749 5.271 11.749 11.749-5.271 11.749-11.749 11.749z"/>
    <path d="M186.743 172.115v-34.623c0-5.523-4.477-10-10-10s-10 4.477-10 10v34.622c-12.62 4.2-21.75 16.113-21.75 30.126s9.129 25.927 21.75 30.126v77.616c0 5.523 4.477 10 10 10s10-4.477 10-10v-77.616c12.62-4.201 21.748-16.114 21.748-30.126s-9.129-25.925-21.748-30.125zm-10.001 41.875c-6.478 0-11.749-5.271-11.749-11.749 0-6.478 5.271-11.749 11.749-11.749 6.479 0 11.749 5.271 11.749 11.749 0 6.478-5.271 11.749-11.749 11.749z"/>
    <path d="M280.733 215.111v-77.618c0-5.523-4.477-10-10-10s-10 4.477-10 10v77.621c-12.618 4.202-21.745 16.114-21.745 30.125s9.127 25.923 21.745 30.125v34.619c0 5.523 4.477 10 10 10s10-4.477 10-10v-34.616c12.622-4.199 21.753-16.114 21.753-30.128s-9.131-25.929-21.753-30.128zm-9.996 41.877c-6.479 0-11.749-5.271-11.749-11.749s5.271-11.749 11.749-11.749c6.478 0 11.749 5.271 11.749 11.749s-5.271 11.749-11.749 11.749z"/>
    <path d="M374.733 258.111V137.492c0-5.523-4.477-10-10-10s-10 4.477-10 10V258.11c-12.62 4.2-21.75 16.114-21.75 30.126 0 17.506 14.243 31.749 31.749 31.749s31.749-14.242 31.749-31.749c0-14.012-9.128-25.925-21.748-30.125zm-10.001 41.874c-6.479 0-11.749-5.271-11.749-11.749 0-6.479 5.271-11.749 11.749-11.749s11.749 5.271 11.749 11.749c0 6.479-5.27 11.749-11.749 11.749z"/>
</symbol><symbol id="ico-mono-telegram" viewBox="0 0 22 22">
    <g clip-path="url(#clip0_8_661)">
        <path d="M8.632 13.916l-.364 5.119c.521 0 .747-.224 1.017-.493l2.441-2.333 5.058 3.705c.928.517 1.582.244 1.832-.854l3.32-15.557v-.001c.295-1.372-.495-1.908-1.399-1.571L1.021 9.402C-.31 9.92-.29 10.662.795 10.998l4.99 1.552 11.589-7.252c.545-.36 1.041-.16.633.2l-9.375 8.418z"/>
    </g>
    
</symbol><symbol id="ico-mono-user" viewBox="0 0 14 14">
    <path d="M11.95 9.05a6.974 6.974 0 00-2.66-1.668A4.045 4.045 0 007 0a4.045 4.045 0 00-2.29 7.382A6.973 6.973 0 002.05 9.05 6.954 6.954 0 000 14h1.094A5.913 5.913 0 017 8.094 5.913 5.913 0 0112.906 14H14c0-1.87-.728-3.628-2.05-4.95zM7 7a2.956 2.956 0 01-2.953-2.953A2.956 2.956 0 017 1.094a2.956 2.956 0 012.953 2.953A2.956 2.956 0 017 7z"/>
</symbol><symbol id="ico-mono-vk" viewBox="0 0 22 22">
    <g clip-path="url(#clip0_8_663)">
        <path d="M21.804 15.92c-.06-.1-.425-.894-2.185-2.528-1.843-1.71-1.595-1.432.624-4.39C21.595 7.2 22.135 6.1 21.966 5.63c-.16-.448-1.155-.33-1.155-.33l-3.306.02s-.244-.034-.427.075c-.178.107-.292.355-.292.355s-.524 1.394-1.222 2.58c-1.473 2.5-2.063 2.633-2.304 2.477-.56-.362-.419-1.455-.419-2.23 0-2.425.367-3.435-.716-3.696-.36-.087-.625-.145-1.545-.155-1.18-.012-2.18.005-2.744.281-.377.184-.667.595-.49.619.219.029.714.133.976.49.34.461.328 1.498.328 1.498s.195 2.854-.455 3.208c-.447.244-1.06-.253-2.373-2.523-.672-1.162-1.18-2.448-1.18-2.448s-.098-.239-.273-.367c-.212-.155-.509-.205-.509-.205L.717 5.3s-.472.013-.645.218c-.154.183-.013.56-.013.56s2.462 5.757 5.248 8.66c2.556 2.661 5.458 2.486 5.458 2.486h1.314s.398-.044.6-.262c.187-.201.18-.578.18-.578s-.026-1.764.793-2.024c.808-.256 1.844 1.705 2.943 2.46.83.57 1.462.446 1.462.446l2.938-.042s1.538-.095.809-1.303z"/>
    </g>
    
</symbol><symbol id="ico-mono-whatsapp" viewBox="0 0 22 22">
    <path d="M11.003 0h-.006C4.932 0 0 4.934 0 11c0 2.406.775 4.636 2.094 6.447l-1.37 4.087 4.227-1.352A10.905 10.905 0 0011.003 22C17.068 22 22 17.065 22 11S17.068 0 11.003 0zm6.4 15.533c-.265.75-1.318 1.371-2.158 1.553-.575.122-1.326.22-3.853-.828-3.233-1.34-5.314-4.624-5.477-4.837-.155-.213-1.306-1.74-1.306-3.318 0-1.579.802-2.347 1.125-2.677.265-.271.704-.395 1.125-.395.136 0 .258.007.368.013.323.013.485.033.699.543.265.639.911 2.218.988 2.38.079.162.157.382.047.595-.103.22-.194.318-.356.505-.162.187-.316.33-.479.53-.148.175-.316.362-.129.685.187.316.833 1.371 1.785 2.218 1.228 1.093 2.223 1.443 2.58 1.591.265.11.58.084.775-.122.246-.266.55-.706.86-1.139.22-.31.497-.35.788-.24.297.104 1.869.88 2.192 1.042.323.162.536.239.615.375.077.136.077.776-.189 1.526z"/>
</symbol></svg>